<?xml version="1.0" encoding="UTF-8"?>
<svg xmlns="http://www.w3.org/2000/svg" xmlns:xlink="http://www.w3.org/1999/xlink" width="40px" height="40px" viewBox="0 0 40 40" version="1.1">
<g id="surface1">
<path style=" stroke:none;fill-rule:nonzero;fill:rgb(11.372549%,11.372549%,10.588235%);fill-opacity:1;" d="M 33.367188 34.765625 L 6.632812 34.765625 C 3.144531 34.765625 0.308594 31.925781 0.308594 28.4375 L 0.308594 11.5625 C 0.308594 8.074219 3.144531 5.234375 6.632812 5.234375 L 33.367188 5.234375 C 36.855469 5.234375 39.691406 8.074219 39.691406 11.5625 L 39.691406 28.4375 C 39.691406 31.925781 36.855469 34.765625 33.367188 34.765625 Z M 6.632812 7.085938 C 4.164062 7.085938 2.15625 9.09375 2.15625 11.5625 L 2.15625 28.4375 C 2.15625 30.90625 4.164062 32.914062 6.632812 32.914062 L 33.367188 32.914062 C 35.835938 32.914062 37.84375 30.90625 37.84375 28.4375 L 37.84375 11.5625 C 37.84375 9.09375 35.835938 7.085938 33.367188 7.085938 Z M 6.632812 7.085938 "/>
<path style=" stroke:none;fill-rule:nonzero;fill:rgb(11.372549%,11.372549%,10.588235%);fill-opacity:1;" d="M 5.140625 11.648438 C 9.867188 16.257812 14.597656 20.863281 19.324219 25.46875 C 20.207031 26.328125 21.558594 24.980469 20.675781 24.117188 C 15.949219 19.511719 11.21875 14.90625 6.492188 10.296875 C 5.609375 9.4375 4.257812 10.789062 5.140625 11.648438 Z M 5.140625 11.648438 "/>
<path style=" stroke:none;fill-rule:nonzero;fill:rgb(11.372549%,11.372549%,10.588235%);fill-opacity:1;" d="M 20.675781 25.46875 C 25.402344 20.863281 30.132812 16.257812 34.859375 11.648438 C 35.742188 10.789062 34.390625 9.4375 33.507812 10.296875 C 28.78125 14.90625 24.050781 19.511719 19.324219 24.117188 C 18.441406 24.980469 19.792969 26.328125 20.675781 25.46875 Z M 20.675781 25.46875 "/>
<path style=" stroke:none;fill-rule:nonzero;fill:rgb(11.372549%,11.372549%,10.588235%);fill-opacity:1;" d="M 34.808594 28.730469 C 31.660156 25.746094 28.515625 22.765625 25.371094 19.78125 C 24.476562 18.933594 23.125 20.285156 24.019531 21.132812 C 27.164062 24.117188 30.308594 27.097656 33.457031 30.082031 C 34.347656 30.929688 35.703125 29.578125 34.808594 28.730469 Z M 34.808594 28.730469 "/>
<path style=" stroke:none;fill-rule:nonzero;fill:rgb(11.372549%,11.372549%,10.588235%);fill-opacity:1;" d="M 6.628906 30.082031 C 9.773438 27.097656 12.921875 24.117188 16.066406 21.132812 C 16.960938 20.285156 15.609375 18.933594 14.714844 19.78125 C 11.570312 22.765625 8.421875 25.746094 5.277344 28.730469 C 4.382812 29.578125 5.734375 30.929688 6.628906 30.082031 Z M 6.628906 30.082031 "/>
</g>
</svg>
