<?xml version="1.0" standalone="no"?>
<!DOCTYPE svg PUBLIC "-//W3C//DTD SVG 20010904//EN"
 "http://www.w3.org/TR/2001/REC-SVG-20010904/DTD/svg10.dtd">
<svg version="1.0" xmlns="http://www.w3.org/2000/svg"
 width="48.000000pt" height="48.000000pt" viewBox="0 0 48.000000 48.000000"
 preserveAspectRatio="xMidYMid meet">

<g transform="translate(0.000000,48.000000) scale(0.100000,-0.100000)"
fill="#000000" stroke="none">
<path d="M200 455 c0 -4 5 -26 12 -47 10 -35 10 -41 -5 -49 -12 -7 -15 -21
-13 -54 1 -24 -1 -42 -6 -39 -4 3 -8 -9 -8 -25 0 -17 -4 -31 -8 -31 -4 0 -14
-20 -21 -45 -12 -40 -11 -48 4 -71 12 -19 20 -23 28 -15 7 7 6 15 -2 25 -9 10
-11 29 -6 58 12 73 24 77 19 7 -4 -57 -2 -68 17 -85 l21 -19 -18 32 c-18 30
-18 33 0 69 12 25 14 40 7 42 -6 2 -11 16 -11 30 0 21 2 24 10 12 14 -21 13 3
-2 35 -9 21 -8 32 5 61 10 19 21 32 27 29 12 -7 33 33 26 51 -8 22 -25 17 -19
-6 7 -26 -14 -26 -22 -1 -6 20 -35 49 -35 36z"/>
<path d="M335 390 c-3 -5 -1 -10 4 -10 6 0 11 5 11 10 0 6 -2 10 -4 10 -3 0
-8 -4 -11 -10z"/>
<path d="M236 355 c-9 -26 -7 -32 5 -12 6 10 9 21 6 23 -2 3 -7 -2 -11 -11z"/>
<path d="M280 356 c-10 -13 -10 -19 0 -32 12 -14 15 -14 29 0 14 15 14 17 0
32 -14 14 -17 14 -29 0z m20 -16 c0 -5 -4 -10 -10 -10 -5 0 -10 5 -10 10 0 6
5 10 10 10 6 0 10 -4 10 -10z"/>
<path d="M94 296 c-8 -22 3 -33 18 -18 9 9 9 15 0 24 -9 9 -13 7 -18 -6z"/>
<path d="M230 290 c0 -8 5 -22 10 -30 9 -13 10 -13 10 0 0 8 -5 22 -10 30 -9
13 -10 13 -10 0z"/>
<path d="M360 280 c0 -5 5 -10 11 -10 5 0 7 5 4 10 -3 6 -8 10 -11 10 -2 0 -4
-4 -4 -10z"/>
<path d="M296 271 c-4 -6 -2 -11 3 -11 6 0 11 -6 11 -14 0 -9 -7 -13 -18 -11
-15 3 -17 -2 -14 -26 2 -16 8 -26 13 -23 13 8 11 -3 -7 -37 -8 -17 -13 -40
-11 -52 4 -18 4 -18 6 5 0 15 6 30 12 34 8 5 10 -4 7 -30 -4 -38 7 -43 26 -13
8 12 7 26 -2 49 -9 24 -9 41 0 70 10 33 9 41 -4 54 -11 11 -18 12 -22 5z m21
-163 c-3 -8 -6 -5 -6 6 -1 11 2 17 5 13 3 -3 4 -12 1 -19z"/>
<path d="M362 218 c6 -18 28 -21 28 -4 0 9 -7 16 -16 16 -9 0 -14 -5 -12 -12z"/>
<path d="M232 183 c-13 -27 -14 -37 -4 -40 6 -3 12 -12 12 -21 0 -15 -2 -15
-10 -2 -8 13 -10 13 -10 -1 0 -9 8 -24 19 -33 18 -16 18 -16 14 9 -3 14 2 36
11 50 20 31 21 41 1 25 -9 -8 -15 -9 -15 -2 0 6 5 14 10 17 6 3 10 13 10 21 0
26 -20 14 -38 -23z"/>
<path d="M125 190 c3 -5 8 -10 11 -10 2 0 4 5 4 10 0 6 -5 10 -11 10 -5 0 -7
-4 -4 -10z"/>
</g>
</svg>
