<?xml version="1.0" standalone="no"?>
<!DOCTYPE svg PUBLIC "-//W3C//DTD SVG 20010904//EN"
 "http://www.w3.org/TR/2001/REC-SVG-20010904/DTD/svg10.dtd">
<svg version="1.0" xmlns="http://www.w3.org/2000/svg"
 width="48.000000pt" height="48.000000pt" viewBox="0 0 48.000000 48.000000"
 preserveAspectRatio="xMidYMid meet">

<g transform="translate(0.000000,48.000000) scale(0.100000,-0.100000)"
fill="#000000" stroke="none">
<path d="M190 452 c1 -4 9 -23 19 -42 17 -35 17 -35 -8 -57 -22 -19 -24 -24
-11 -32 13 -9 13 -14 -3 -40 -22 -38 -22 -53 3 -84 13 -17 16 -27 8 -29 -6 -2
-11 -19 -10 -38 1 -30 -1 -32 -15 -17 -14 13 -14 20 -3 47 8 21 10 34 3 41 -7
7 -16 -5 -27 -35 -17 -43 -17 -46 1 -70 17 -23 24 -25 98 -26 l81 0 -4 43 c-2
23 -8 47 -12 52 -4 6 -4 19 1 30 11 29 11 73 -2 80 -16 11 -25 -5 -9 -16 13
-8 13 -11 -2 -20 -10 -5 -18 -17 -18 -25 0 -17 -42 -103 -51 -104 -4 0 -9 11
-11 25 -4 21 -3 23 9 13 13 -10 15 -8 12 12 -1 14 2 33 6 44 5 11 3 40 -5 69
-12 47 -11 53 10 92 13 23 20 50 17 59 -9 22 -26 20 -20 -3 3 -10 0 -21 -5
-25 -5 -3 -12 7 -15 23 -5 24 -38 54 -37 33z m30 -220 c0 -13 -4 -20 -10 -17
-5 3 -10 21 -10 38 0 24 3 28 10 17 5 -8 10 -25 10 -38z m80 -122 c0 -10 -4
-22 -10 -25 -6 -4 -10 7 -10 25 0 18 4 29 10 25 6 -3 10 -15 10 -25z"/>
<path d="M330 390 c0 -5 5 -10 11 -10 5 0 7 5 4 10 -3 6 -8 10 -11 10 -2 0 -4
-4 -4 -10z"/>
<path d="M282 348 c2 -5 8 -9 13 -9 5 0 11 4 13 9 1 5 -4 9 -13 9 -9 0 -14 -4
-13 -9z"/>
<path d="M130 340 c0 -5 5 -10 10 -10 6 0 10 5 10 10 0 6 -4 10 -10 10 -5 0
-10 -4 -10 -10z"/>
<path d="M85 290 c3 -5 8 -10 11 -10 2 0 4 5 4 10 0 6 -5 10 -11 10 -5 0 -7
-4 -4 -10z"/>
<path d="M254 237 c1 -30 4 -50 8 -44 10 15 9 56 -1 81 -4 11 -7 -4 -7 -37z"/>
<path d="M360 220 c0 -5 4 -10 9 -10 6 0 13 5 16 10 3 6 -1 10 -9 10 -9 0 -16
-4 -16 -10z"/>
<path d="M120 189 c0 -5 5 -7 10 -4 6 3 10 8 10 11 0 2 -4 4 -10 4 -5 0 -10
-5 -10 -11z"/>
</g>
</svg>
