<?xml version="1.0" standalone="no"?>
<!DOCTYPE svg PUBLIC "-//W3C//DTD SVG 20010904//EN"
 "http://www.w3.org/TR/2001/REC-SVG-20010904/DTD/svg10.dtd">
<svg version="1.0" xmlns="http://www.w3.org/2000/svg"
 width="84.000000pt" height="84.000000pt" viewBox="0 0 84.000000 84.000000"
 preserveAspectRatio="xMidYMid meet">

<g transform="translate(0.000000,84.000000) scale(0.100000,-0.100000)"
fill="#000000" stroke="none">
<path d="M332 793 c30 -63 38 -82 43 -106 5 -24 8 -27 20 -17 39 33 -4 130
-57 130 -5 0 -8 -3 -6 -7z"/>
<path d="M427 763 c-12 -12 -7 -22 8 -17 28 11 16 -24 -26 -73 -59 -69 -61
-71 -54 -48 6 18 4 17 -14 -4 -14 -15 -21 -36 -20 -60 l1 -36 8 30 c6 25 8 26
9 7 0 -12 13 -50 27 -84 16 -39 24 -72 20 -89 -3 -19 1 -32 14 -44 17 -16 19
-15 30 5 19 35 14 81 -14 148 -29 70 -30 68 31 156 18 26 33 58 33 70 0 34
-34 59 -53 39z"/>
<path d="M574 689 c-10 -17 13 -36 27 -22 12 12 4 33 -11 33 -5 0 -12 -5 -16
-11z"/>
<path d="M483 624 c-8 -21 19 -46 40 -38 9 3 17 15 17 26 0 17 -3 18 -15 8
-12 -10 -15 -10 -15 4 0 21 -19 21 -27 0z"/>
<path d="M230 595 c0 -10 7 -15 18 -13 21 4 19 22 -2 26 -10 2 -16 -3 -16 -13z"/>
<path d="M143 525 c-7 -21 11 -39 31 -32 22 8 20 20 -4 35 -17 10 -21 10 -27
-3z"/>
<path d="M317 481 c-30 -74 -23 -102 48 -182 18 -20 35 -42 38 -50 5 -12 7
-12 16 1 19 26 12 48 -29 96 -37 41 -41 51 -39 93 1 26 -2 55 -8 65 -9 16 -12
13 -26 -23z"/>
<path d="M435 493 c26 -61 29 -94 13 -138 -10 -25 -13 -45 -8 -45 4 0 16 21
26 46 16 43 16 48 0 100 -9 30 -22 54 -28 54 -6 0 -7 -7 -3 -17z"/>
<path d="M617 494 c-9 -10 2 -24 19 -24 8 0 14 7 14 15 0 15 -21 21 -33 9z"/>
<path d="M507 483 c-11 -10 -8 -33 4 -33 5 0 7 5 4 10 -3 6 -2 10 4 10 15 0
23 -38 12 -57 -6 -10 -11 -12 -11 -5 0 21 -16 13 -28 -13 -18 -40 -14 -53 9
-25 28 33 15 11 -43 -79 -26 -40 -48 -83 -48 -95 -1 -21 -1 -21 -16 -1 -8 11
-12 30 -10 41 4 14 -2 31 -14 45 -17 21 -21 22 -30 9 -22 -33 -23 -79 -1 -122
l22 -43 -40 45 c-45 50 -48 64 -26 106 16 31 19 53 9 78 -10 25 -22 19 -30
-16 -3 -18 -15 -49 -25 -68 -25 -46 -24 -66 6 -96 30 -29 31 -41 8 -47 -10 -3
59 -5 152 -6 94 0 165 3 160 7 -6 4 -10 32 -11 62 0 30 -6 69 -13 85 l-13 30
-15 -28 c-11 -22 -12 -35 -4 -58 12 -34 -2 -83 -22 -77 -26 9 -18 60 27 157
51 107 56 141 26 171 -21 21 -32 24 -43 13z"/>
<path d="M632 388 c4 -27 33 -36 42 -13 8 22 -1 35 -25 35 -15 0 -20 -6 -17
-22z"/>
<path d="M207 343 c-13 -12 -7 -23 13 -23 11 0 20 7 20 15 0 15 -21 21 -33 8z"/>
<path d="M585 299 c-10 -15 3 -25 16 -12 7 7 7 13 1 17 -6 3 -14 1 -17 -5z"/>
<path d="M603 123 c9 -2 23 -2 30 0 6 3 -1 5 -18 5 -16 0 -22 -2 -12 -5z"/>
<path d="M240 90 c0 -5 9 -10 20 -10 11 0 20 5 20 10 0 6 -9 10 -20 10 -11 0
-20 -4 -20 -10z"/>
<path d="M325 90 c3 -5 15 -10 25 -10 10 0 22 5 25 10 4 6 -7 10 -25 10 -18 0
-29 -4 -25 -10z"/>
<path d="M473 83 c20 -2 54 -2 75 0 20 2 3 4 -38 4 -41 0 -58 -2 -37 -4z"/>
<path d="M465 50 c3 -5 15 -10 26 -10 10 0 19 5 19 10 0 6 -12 10 -26 10 -14
0 -23 -4 -19 -10z"/>
</g>
</svg>
