<?xml version="1.0" standalone="no"?>
<!DOCTYPE svg PUBLIC "-//W3C//DTD SVG 20010904//EN"
 "http://www.w3.org/TR/2001/REC-SVG-20010904/DTD/svg10.dtd">
<svg version="1.0" xmlns="http://www.w3.org/2000/svg"
 width="700.000000pt" height="700.000000pt" viewBox="0 0 700.000000 700.000000"
 preserveAspectRatio="xMidYMid meet">
<metadata>
Created by potrace 1.14, written by Peter Selinger 2001-2017
</metadata>
<g transform="translate(0.000000,700.000000) scale(0.100000,-0.100000)"
fill="#000000" stroke="none">
<path d="M2781 6653 c-12 -8 -21 -18 -21 -22 0 -5 23 -58 51 -117 92 -196 120
-257 175 -383 54 -122 118 -303 129 -358 26 -145 60 -233 90 -233 46 0 127 69
165 142 142 272 -63 785 -375 940 -80 40 -181 55 -214 31z"/>
<path d="M3621 6399 c-88 -39 -144 -140 -102 -182 12 -12 79 -11 114 2 38 15
90 14 105 -1 19 -19 14 -78 -12 -141 -56 -135 -172 -298 -407 -573 -85 -99
-163 -190 -174 -203 -48 -57 -189 -201 -197 -201 -14 0 -9 45 15 129 18 60 21
81 11 81 -18 0 -137 -133 -188 -210 -81 -123 -113 -244 -110 -419 1 -53 2
-135 3 -183 1 -60 5 -88 13 -88 6 0 9 2 6 6 -3 3 1 26 8 52 8 26 28 98 45 159
39 149 48 172 59 153 4 -8 11 -46 14 -84 11 -126 63 -293 189 -616 100 -257
141 -377 173 -502 32 -127 37 -165 33 -263 -8 -216 -5 -257 23 -317 29 -63
136 -176 193 -202 44 -21 63 -12 105 49 35 51 100 188 100 211 0 8 4 23 9 32
26 49 34 274 15 407 -28 188 -89 390 -204 670 -68 164 -136 353 -145 400 -12
67 -6 171 15 235 33 101 88 196 258 447 205 304 231 346 302 486 122 238 135
338 66 481 -78 159 -219 237 -335 185z"/>
<path d="M4838 5797 c-53 -40 -73 -78 -71 -136 4 -108 132 -178 219 -119 120
82 71 288 -70 288 -24 0 -48 -10 -78 -33z"/>
<path d="M4104 5310 c-34 -22 -80 -98 -89 -149 -3 -19 1 -57 10 -89 30 -103
159 -202 265 -202 110 0 211 115 209 240 -2 108 -22 130 -81 89 -18 -13 -35
-26 -38 -29 -13 -17 -87 -60 -101 -60 -19 0 -29 28 -29 88 0 111 -67 162 -146
112z"/>
<path d="M1945 5039 c-46 -56 -32 -148 27 -180 49 -27 160 -1 201 46 21 24 17
78 -8 106 -27 29 -86 52 -142 55 -47 2 -55 0 -78 -27z"/>
<path d="M1232 4437 c-56 -59 -67 -153 -27 -233 53 -106 172 -137 293 -75 114
58 100 148 -39 242 -71 48 -156 89 -185 89 -11 0 -30 -10 -42 -23z"/>
<path d="M2768 4267 c-24 -20 -46 -62 -94 -179 -129 -315 -167 -457 -168 -628
-1 -111 8 -163 45 -264 56 -155 156 -308 360 -551 104 -124 134 -158 207 -240
91 -102 202 -254 241 -332 35 -71 43 -78 70 -64 25 14 107 137 127 192 61 167
-30 363 -325 703 -183 210 -271 342 -287 431 -3 16 -8 33 -12 39 -3 6 -7 126
-8 266 -1 284 -7 360 -35 470 -29 113 -86 186 -121 157z"/>
<path d="M3620 4235 c-21 -25 -13 -77 25 -175 145 -369 186 -565 163 -782 -13
-125 -22 -161 -94 -375 -57 -166 -80 -302 -56 -317 46 -28 252 394 307 629 31
132 18 256 -51 481 -61 202 -85 268 -139 382 -71 147 -121 198 -155 157z"/>
<path d="M5188 4149 c-124 -64 -75 -210 76 -226 75 -8 110 8 135 61 31 63 13
124 -46 163 -38 25 -119 26 -165 2z"/>
<path d="M4285 4066 c-40 -17 -84 -63 -101 -103 -16 -37 -18 -111 -5 -146 31
-81 134 -90 118 -10 -19 91 -19 91 -1 101 43 22 92 -5 125 -70 67 -131 57
-336 -22 -431 -45 -54 -69 -46 -69 23 0 15 -8 38 -18 50 -44 54 -127 -21 -207
-185 -102 -213 -128 -354 -59 -331 27 9 49 30 139 131 82 92 97 107 103 100 9
-9 -92 -176 -352 -583 -241 -378 -338 -542 -422 -717 -85 -177 -100 -228 -103
-351 -2 -55 -26 -49 -81 19 -90 114 -135 237 -130 357 8 187 5 212 -28 282
-57 117 -207 288 -254 288 -51 0 -159 -181 -199 -335 -16 -61 -21 -113 -22
-215 -1 -74 2 -150 6 -167 4 -18 9 -45 12 -60 3 -16 14 -59 26 -98 11 -38 23
-79 26 -90 3 -11 57 -120 119 -242 62 -123 111 -223 109 -223 -1 0 -50 53
-106 117 -57 65 -111 125 -119 133 -128 138 -265 302 -317 378 -72 106 -99
179 -102 272 -2 90 19 158 102 331 74 153 95 208 112 291 29 135 14 265 -43
390 -80 175 -172 121 -232 -138 -49 -209 -111 -372 -230 -614 -108 -217 -125
-271 -125 -395 0 -90 3 -106 29 -160 36 -75 67 -115 186 -240 145 -152 185
-219 168 -282 -7 -26 -19 -37 -70 -62 -55 -26 -60 -30 -38 -35 146 -35 2104
-44 2399 -11 20 2 65 7 101 10 35 4 68 9 72 11 4 3 -1 22 -11 42 -17 33 -31
90 -45 177 -12 70 -18 163 -31 435 -3 63 -7 124 -9 135 -3 18 -10 68 -21 145
-5 44 -15 93 -31 165 -18 78 -145 388 -155 377 -3 -4 -28 -47 -54 -97 -26 -49
-51 -94 -55 -100 -4 -5 -25 -53 -45 -105 -47 -118 -54 -220 -23 -328 61 -206
72 -326 43 -465 -26 -125 -65 -201 -123 -239 -54 -36 -120 -11 -169 63 -25 38
-28 51 -29 143 -3 111 22 253 71 409 48 154 167 456 252 637 69 147 203 441
203 445 0 2 11 29 25 59 14 30 25 61 25 68 0 8 4 18 9 23 5 6 25 60 45 120
139 425 109 595 -143 818 -90 80 -168 108 -226 83z"/>
<path d="M5338 3408 c-59 -16 -73 -39 -72 -122 0 -40 6 -88 13 -107 61 -155
213 -212 301 -112 60 67 76 212 32 273 -41 57 -182 92 -274 68z"/>
<path d="M1777 2896 c-23 -12 -57 -42 -74 -65 -70 -91 -21 -160 117 -162 69
-1 117 18 154 61 31 38 32 86 2 131 -35 55 -129 71 -199 35z"/>
<path d="M4940 2539 c-84 -18 -126 -154 -57 -187 39 -19 87 -1 131 49 71 78
27 160 -74 138z"/>
<path d="M5023 1062 c-33 -3 -42 -15 -22 -28 29 -18 208 -25 262 -11 33 9 35
23 5 33 -25 8 -192 12 -245 6z"/>
<path d="M2129 829 c-191 -21 -154 -164 41 -158 75 3 109 12 139 40 69 64 -38
134 -180 118z"/>
<path d="M2855 829 c-84 -6 -141 -24 -149 -46 -21 -53 103 -116 223 -114 90 1
201 58 201 102 0 41 -135 70 -275 58z"/>
<path d="M4037 724 c-1 -2 -32 -4 -67 -5 -97 -3 -118 -15 -45 -25 72 -10 567
-12 644 -2 48 6 78 16 55 19 -5 1 -22 3 -39 5 -33 4 -544 11 -548 8z"/>
<path d="M3930 488 c-107 -29 -64 -105 81 -143 61 -16 139 -10 188 14 69 36
64 85 -11 116 -50 21 -203 28 -258 13z"/>
</g>
</svg>
