<?xml version="1.0" standalone="no"?>
<!DOCTYPE svg PUBLIC "-//W3C//DTD SVG 20010904//EN"
 "http://www.w3.org/TR/2001/REC-SVG-20010904/DTD/svg10.dtd">
<svg version="1.0" xmlns="http://www.w3.org/2000/svg"
 width="700.000000pt" height="700.000000pt" viewBox="0 0 700.000000 700.000000"
 preserveAspectRatio="xMidYMid meet">
<metadata>
Created by potrace 1.14, written by Peter Selinger 2001-2017
</metadata>
<g transform="translate(0.000000,700.000000) scale(0.100000,-0.100000)"
fill="#000000" stroke="none">
<path d="M2895 6663 c-66 -13 -65 -12 -56 -36 5 -12 50 -107 101 -212 117
-241 164 -366 185 -495 3 -19 10 -57 15 -85 19 -96 27 -317 15 -415 -11 -95
-16 -127 -30 -180 -33 -126 -105 -243 -173 -279 -30 -16 -40 -8 -35 26 8 49
31 88 77 134 51 50 63 95 40 142 -30 58 -96 24 -150 -78 -23 -42 -71 -170 -78
-208 -2 -12 -9 -43 -15 -69 -6 -25 -14 -70 -17 -99 -8 -61 -11 -398 -5 -405 3
-3 33 100 67 228 57 216 62 229 66 183 20 -237 -26 -461 -149 -723 -88 -190
-130 -314 -151 -456 -10 -60 -8 -250 2 -296 22 -103 31 -133 54 -195 34 -93
75 -171 144 -277 31 -48 76 -122 100 -165 40 -73 43 -83 42 -153 0 -70 -4 -84
-57 -197 -66 -141 -78 -176 -107 -293 -31 -129 -35 -223 -16 -320 63 -308 337
-689 526 -729 123 -27 109 18 -73 232 -177 209 -230 294 -268 433 -58 213 -1
466 197 865 198 401 266 636 259 904 -5 180 -45 321 -156 559 -124 263 -160
404 -155 611 4 150 28 249 97 390 36 74 118 206 161 260 9 11 54 67 100 125
92 116 212 246 241 262 77 41 -16 -137 -263 -503 -28 -40 -80 -148 -107 -219
-63 -166 -66 -356 -8 -578 17 -68 90 -294 104 -327 5 -11 17 -40 26 -65 9 -25
66 -173 126 -329 76 -197 108 -290 103 -305 -4 -11 -33 -77 -65 -145 -33 -68
-59 -125 -59 -127 0 -2 -23 -52 -51 -111 -357 -753 -419 -1085 -264 -1411 124
-262 414 -523 585 -526 45 -1 55 2 58 17 4 18 -18 42 -157 172 -79 73 -114
153 -114 259 -1 44 2 97 6 116 45 235 238 587 610 1110 116 163 269 371 299
405 9 11 26 31 37 44 12 13 21 19 21 13 0 -20 -150 -354 -293 -652 -77 -163
-173 -370 -229 -500 -31 -71 -35 -82 -57 -142 -47 -132 -61 -211 -57 -324 7
-184 71 -387 137 -436 47 -35 75 -41 223 -43 200 -4 295 27 370 118 87 107
128 250 126 447 -2 245 -56 466 -174 712 -117 246 -117 271 5 530 79 169 113
276 138 438 44 291 -9 559 -131 665 -56 49 -158 97 -218 103 -41 4 -51 1 -83
-27 -95 -84 -95 -279 0 -281 31 0 58 42 44 68 -20 37 -20 70 -1 87 41 37 89
-31 109 -155 6 -36 9 -126 8 -200 -4 -186 -23 -213 -103 -149 -49 39 -87 59
-112 59 -47 0 -123 -125 -161 -265 -23 -85 -30 -126 -37 -230 -13 -200 -83
-351 -278 -603 l-111 -143 -13 43 c-7 24 -15 57 -18 73 -3 17 -10 50 -15 75
-6 25 -13 59 -16 75 -3 17 -8 48 -12 71 -11 57 -6 203 9 266 7 29 23 73 35 98
145 290 89 719 -169 1282 -82 179 -125 341 -120 448 6 134 73 294 214 510 41
63 78 120 83 125 61 79 211 307 269 410 98 172 132 280 132 410 -1 162 -149
305 -316 305 -115 0 -180 -54 -172 -143 7 -67 32 -81 90 -53 16 8 38 13 49 11
11 -2 23 -4 27 -4 4 -1 15 -15 24 -33 27 -52 15 -153 -30 -242 -43 -88 -132
-186 -169 -186 -43 0 -65 39 -73 129 -11 127 -16 153 -43 220 -52 124 -148
270 -257 390 -53 58 -154 137 -194 153 -29 11 -86 17 -115 11z m500 -798 c23
-53 1 -165 -31 -165 -17 0 -15 -9 -21 75 -7 110 23 162 52 90z m-433 -1710 c9
-10 -12 -102 -52 -223 -51 -156 -69 -255 -68 -377 2 -187 41 -323 163 -573 51
-104 77 -168 67 -162 -9 5 -62 55 -117 112 -72 74 -109 121 -132 169 -34 70
-68 182 -80 264 -9 64 -9 287 0 340 4 22 9 55 13 74 16 93 83 239 151 334 33
45 44 53 55 42z m172 -288 c86 -113 165 -364 170 -544 4 -139 -28 -244 -82
-264 -39 -15 -106 21 -137 75 -87 153 -118 614 -49 747 24 48 54 44 98 -14z
m369 -1456 c71 -123 94 -205 62 -217 -8 -3 -31 2 -52 13 -38 18 -77 78 -88
133 -8 40 -8 114 0 139 7 22 8 22 26 5 11 -10 34 -43 52 -73z m969 -141 c98
-166 133 -257 170 -430 33 -160 30 -256 -13 -423 -29 -114 -94 -232 -170 -308
-27 -27 -23 -9 15 75 32 69 60 141 73 191 3 11 7 85 9 165 3 187 -9 269 -86
580 -22 85 -42 170 -45 189 -3 19 -8 38 -11 43 -3 4 -3 8 0 8 2 0 29 -41 58
-90z m-1073 -159 c38 -38 75 -133 88 -224 12 -83 8 -268 -6 -312 -15 -45 -38
-75 -57 -75 -30 0 -82 82 -105 165 -33 120 -43 188 -42 280 0 82 10 128 34
159 24 31 61 34 88 7z m912 -70 c63 -68 102 -215 103 -396 1 -199 -51 -369
-148 -487 -72 -89 -93 -78 -129 67 -26 99 -30 134 -32 275 -2 123 4 206 20
300 3 19 8 47 10 61 9 50 45 154 65 187 28 45 62 43 111 -7z"/>
<path d="M4972 5827 c-83 -25 -142 -127 -117 -201 44 -127 205 -143 265 -27
33 65 25 131 -24 186 -36 42 -78 55 -124 42z"/>
<path d="M4215 5313 c-146 -59 -297 -241 -297 -358 0 -145 247 -380 387 -369
152 13 366 237 360 377 -3 71 -48 152 -130 232 -84 83 -86 84 -147 113 -56 26
-117 28 -173 5z m182 -167 c53 -27 59 -52 27 -123 -23 -51 -119 -148 -177
-178 -103 -54 -168 -8 -152 110 8 62 35 123 67 153 59 54 170 72 235 38z"/>
<path d="M2084 5075 c-70 -30 -100 -103 -69 -168 58 -122 230 -80 230 55 0 40
-5 53 -31 78 -38 38 -90 52 -130 35z"/>
<path d="M1465 4476 c-5 -2 -34 -11 -64 -21 -104 -32 -142 -85 -142 -200 0
-280 323 -421 445 -195 26 48 30 65 29 135 -1 127 -45 220 -125 261 -29 15
-121 28 -143 20z m63 -170 c40 -21 62 -49 69 -90 5 -32 1 -40 -35 -76 -67 -68
-129 -48 -139 44 -7 56 2 91 27 116 24 24 41 25 78 6z"/>
<path d="M3667 4237 c-3 -8 8 -52 25 -98 107 -297 160 -467 177 -565 18 -105
21 -242 7 -324 -17 -98 -69 -267 -133 -429 -46 -115 -62 -194 -45 -219 34 -50
110 8 170 132 113 231 171 587 135 830 -33 226 -133 477 -246 616 -54 66 -80
83 -90 57z"/>
<path d="M5285 4165 c-5 -2 -21 -6 -35 -9 -35 -7 -70 -42 -70 -70 0 -37 54
-101 106 -126 119 -58 225 -10 210 95 -10 66 -63 103 -159 110 -23 1 -46 1
-52 0z"/>
<path d="M5455 3405 c-5 -2 -22 -6 -37 -9 -68 -15 -130 -106 -131 -192 -2
-209 281 -354 403 -206 96 116 31 336 -116 392 -29 11 -102 20 -119 15z m158
-134 c28 -31 28 -55 0 -99 -32 -49 -100 -87 -138 -78 -51 13 -58 87 -13 151
34 51 117 65 151 26z"/>
<path d="M2430 3082 c-55 -17 -87 -94 -95 -227 -13 -222 -69 -402 -183 -587
-104 -169 -134 -257 -135 -393 -1 -157 55 -272 246 -500 78 -93 150 -202 172
-259 16 -40 16 -50 4 -72 -16 -31 -2 -44 49 -44 59 0 98 54 94 130 -6 106 -75
231 -206 369 -50 53 -106 119 -123 147 -72 112 -100 261 -68 369 18 65 74 174
101 196 15 12 16 8 12 -46 -3 -33 -11 -104 -18 -158 -17 -120 -8 -178 50 -292
100 -200 481 -635 556 -635 52 0 -64 219 -197 370 -17 19 -47 55 -67 80 -20
25 -40 47 -43 50 -15 13 -69 101 -96 155 -43 86 -57 153 -50 249 9 119 15 139
97 316 55 119 81 196 96 285 11 65 8 221 -6 284 -15 74 -57 158 -90 183 -30
22 -79 37 -100 30z"/>
<path d="M1861 2908 c-64 -18 -110 -67 -111 -120 0 -33 44 -86 87 -104 73 -31
185 -7 224 47 71 100 -59 215 -200 177z"/>
<path d="M4956 2561 c-10 -11 -24 -36 -31 -57 -34 -99 57 -213 120 -150 33 33
47 103 30 156 -19 63 -83 91 -119 51z"/>
<path d="M5105 1062 c-36 -7 -39 -21 -9 -33 33 -13 189 -19 236 -10 39 8 47
27 16 37 -25 8 -210 13 -243 6z"/>
<path d="M2160 833 c-55 -7 -111 -27 -119 -41 -25 -45 64 -105 177 -120 50 -7
73 -5 115 9 131 44 95 131 -61 145 -37 3 -71 6 -77 8 -5 1 -21 0 -35 -1z"/>
<path d="M2915 828 c-124 -15 -195 -68 -148 -110 69 -61 273 -64 389 -6 95 47
69 100 -54 113 -94 10 -118 11 -187 3z"/>
<path d="M4117 724 c-1 -1 -37 -4 -80 -7 -43 -3 -81 -8 -84 -11 -4 -3 0 -6 8
-7 8 0 37 -3 64 -7 69 -9 545 -9 624 0 59 7 92 17 60 19 -8 0 -23 3 -34 5 -19
4 -553 12 -558 8z"/>
<path d="M4020 490 c-78 -17 -123 -69 -88 -103 54 -54 239 -69 336 -27 81 35
82 84 3 117 -43 18 -190 25 -251 13z"/>
</g>
</svg>
