<?xml version="1.0" standalone="no"?>
<!DOCTYPE svg PUBLIC "-//W3C//DTD SVG 20010904//EN"
 "http://www.w3.org/TR/2001/REC-SVG-20010904/DTD/svg10.dtd">
<svg version="1.0" xmlns="http://www.w3.org/2000/svg"
 width="84.000000pt" height="84.000000pt" viewBox="0 0 84.000000 84.000000"
 preserveAspectRatio="xMidYMid meet">

<g transform="translate(0.000000,84.000000) scale(0.100000,-0.100000)"
fill="#000000" stroke="none">
<path d="M340 797 c0 -1 9 -20 20 -42 24 -46 26 -121 5 -149 -8 -11 -15 -15
-15 -9 0 7 5 15 10 18 6 4 7 11 4 17 -11 17 -33 -33 -32 -72 l0 -35 8 30 8 30
1 -28 c0 -15 -8 -45 -19 -67 -27 -53 -25 -99 5 -144 23 -35 24 -39 10 -66 -8
-16 -15 -42 -15 -58 0 -36 39 -96 65 -101 15 -3 13 4 -13 33 -41 46 -41 79 -2
156 35 69 38 116 10 170 -28 55 -26 99 8 146 46 62 69 75 28 14 -43 -62 -44
-86 -6 -182 l22 -57 -31 -67 c-35 -75 -41 -117 -21 -154 15 -30 50 -60 70 -60
10 0 7 6 -9 19 -34 26 -23 69 44 166 30 43 55 76 55 73 0 -3 -19 -45 -42 -93
-36 -76 -40 -91 -32 -123 8 -34 12 -37 44 -37 27 0 37 6 48 25 15 29 9 88 -14
131 -13 26 -13 32 2 62 25 46 24 115 -1 133 -10 8 -24 13 -30 11 -14 -5 -19
-37 -5 -37 6 0 8 5 5 10 -3 6 -1 10 4 10 6 0 11 -16 11 -36 0 -31 -2 -35 -14
-25 -12 10 -17 8 -25 -8 -6 -11 -11 -32 -11 -48 0 -15 -11 -41 -24 -58 l-23
-29 -7 31 c-4 18 -3 41 3 52 18 33 12 85 -15 145 -30 65 -27 78 27 155 40 56
48 88 27 109 -17 17 -48 15 -48 -4 0 -8 4 -13 9 -9 16 10 22 -13 9 -35 -17
-27 -28 -25 -28 4 0 28 -45 86 -66 86 -8 0 -14 -1 -14 -3z m67 -109 c-3 -8 -6
-5 -6 6 -1 11 2 17 5 13 3 -3 4 -12 1 -19z m-57 -214 c-14 -37 -12 -70 6 -107
l16 -32 -22 21 c-25 24 -30 87 -10 123 15 29 21 26 10 -5z m40 -39 c14 -44 5
-82 -16 -64 -16 13 -20 99 -5 99 5 0 15 -16 21 -35z m40 -168 c0 -5 -4 -5 -10
-2 -5 3 -10 14 -10 23 0 15 2 15 10 2 5 -8 10 -19 10 -23z m130 -68 c0 -19 -7
-44 -16 -55 -14 -18 -15 -18 -4 5 11 22 10 57 -5 111 l-6 25 15 -25 c8 -14 15
-41 16 -61z m-140 9 c0 -16 -4 -28 -9 -28 -12 0 -24 56 -15 71 10 16 24 -9 24
-43z m104 26 c10 -27 7 -69 -8 -90 -14 -18 -15 -18 -21 9 -8 31 2 97 14 97 5
0 12 -7 15 -16z"/>
<path d="M584 689 c-10 -17 13 -36 27 -22 12 12 4 33 -11 33 -5 0 -12 -5 -16
-11z"/>
<path d="M486 624 c-9 -8 -16 -22 -16 -29 0 -7 7 -21 16 -29 8 -9 22 -16 29
-16 18 0 45 27 45 45 0 18 -27 45 -45 45 -7 0 -21 -7 -29 -16z m47 -11 c2 -5
-4 -16 -14 -25 -20 -19 -35 -8 -25 17 6 16 32 20 39 8z"/>
<path d="M240 595 c0 -8 7 -15 15 -15 8 0 15 7 15 15 0 8 -7 15 -15 15 -8 0
-15 -7 -15 -15z"/>
<path d="M163 533 c-17 -6 -16 -38 1 -52 22 -18 48 -2 44 28 -3 25 -20 35 -45
24z m29 -28 c0 -5 -5 -11 -11 -13 -6 -2 -11 4 -11 13 0 9 5 15 11 13 6 -2 11
-8 11 -13z"/>
<path d="M443 496 c31 -80 31 -97 2 -168 -4 -10 -3 -18 3 -18 15 0 34 56 34
99 0 22 -8 53 -17 70 -16 31 -32 43 -22 17z"/>
<path d="M622 488 c7 -19 38 -22 38 -4 0 10 -9 16 -21 16 -12 0 -19 -5 -17
-12z"/>
<path d="M636 394 c-9 -22 17 -49 39 -40 10 3 15 15 13 28 -4 29 -42 37 -52
12z m35 -17 c-13 -13 -26 -3 -16 12 3 6 11 8 17 5 6 -4 6 -10 -1 -17z"/>
<path d="M280 338 c0 -18 -9 -46 -20 -63 -27 -41 -25 -69 10 -108 16 -19 27
-37 23 -41 -3 -3 -1 -6 5 -6 21 0 13 36 -13 60 -26 24 -32 54 -15 80 7 11 8 7
4 -15 -5 -25 1 -39 33 -78 21 -26 40 -42 41 -37 2 6 -10 26 -27 46 -35 39 -38
61 -15 105 18 35 11 89 -12 89 -9 0 -14 -11 -14 -32z"/>
<path d="M210 335 c0 -8 9 -15 20 -15 11 0 20 7 20 15 0 8 -9 15 -20 15 -11 0
-20 -7 -20 -15z"/>
<path d="M590 295 c0 -8 5 -15 10 -15 6 0 10 7 10 15 0 8 -4 15 -10 15 -5 0
-10 -7 -10 -15z"/>
<path d="M613 123 c9 -2 23 -2 30 0 6 3 -1 5 -18 5 -16 0 -22 -2 -12 -5z"/>
<path d="M245 90 c3 -5 15 -10 26 -10 10 0 19 5 19 10 0 6 -12 10 -26 10 -14
0 -23 -4 -19 -10z"/>
<path d="M330 90 c0 -5 11 -10 24 -10 14 0 28 5 31 10 4 6 -7 10 -24 10 -17 0
-31 -4 -31 -10z"/>
<path d="M483 83 c20 -2 54 -2 75 0 20 2 3 4 -38 4 -41 0 -58 -2 -37 -4z"/>
<path d="M470 50 c0 -5 11 -10 25 -10 14 0 25 5 25 10 0 6 -11 10 -25 10 -14
0 -25 -4 -25 -10z"/>
</g>
</svg>
