<?xml version="1.0" encoding="UTF-8"?>
<svg xmlns="http://www.w3.org/2000/svg" xmlns:xlink="http://www.w3.org/1999/xlink" width="162px" height="162px" viewBox="0 0 162 162" version="1.1">
<g id="surface1">
<path style=" stroke:none;fill-rule:nonzero;fill:rgb(0%,0%,0%);fill-opacity:1;" d="M 64.027344 9.0625 C 69.8125 21.214844 71.355469 24.878906 72.320312 29.507812 C 73.285156 34.136719 73.863281 34.714844 76.179688 32.785156 C 83.699219 26.421875 75.40625 7.714844 65.1875 7.714844 C 64.222656 7.714844 63.644531 8.292969 64.027344 9.0625 Z M 64.027344 9.0625 "/>
<path style=" stroke:none;fill-rule:nonzero;fill:rgb(0%,0%,0%);fill-opacity:1;" d="M 82.351562 14.851562 C 80.035156 17.164062 81 19.09375 83.894531 18.128906 C 89.292969 16.007812 86.980469 22.757812 78.878906 32.207031 C 67.5 45.515625 67.113281 45.898438 68.464844 41.464844 C 69.621094 37.992188 69.234375 38.1875 65.765625 42.234375 C 63.0625 45.128906 61.714844 49.179688 61.90625 53.808594 L 62.101562 60.75 L 63.644531 54.964844 C 64.800781 50.144531 65.1875 49.949219 65.378906 53.613281 C 65.378906 55.929688 67.886719 63.257812 70.585938 69.8125 C 73.671875 77.335938 75.214844 83.699219 74.441406 86.980469 C 73.863281 90.644531 74.636719 93.148438 77.144531 95.464844 C 80.421875 98.550781 80.808594 98.355469 82.929688 94.5 C 86.59375 87.75 85.628906 78.878906 80.230469 65.957031 C 74.636719 52.457031 74.441406 52.84375 86.207031 35.871094 C 89.679688 30.855469 92.570312 24.6875 92.570312 22.371094 C 92.570312 15.8125 86.015625 10.992188 82.351562 14.851562 Z M 82.351562 14.851562 "/>
<path style=" stroke:none;fill-rule:nonzero;fill:rgb(0%,0%,0%);fill-opacity:1;" d="M 110.699219 29.121094 C 108.769531 32.398438 113.207031 36.0625 115.90625 33.363281 C 118.222656 31.050781 116.679688 27 113.785156 27 C 112.820312 27 111.472656 27.964844 110.699219 29.121094 Z M 110.699219 29.121094 "/>
<path style=" stroke:none;fill-rule:nonzero;fill:rgb(0%,0%,0%);fill-opacity:1;" d="M 93.148438 41.65625 C 91.605469 45.707031 96.8125 50.527344 100.863281 48.984375 C 102.601562 48.40625 104.144531 46.09375 104.144531 43.972656 C 104.144531 40.691406 103.5625 40.5 101.25 42.429688 C 98.9375 44.355469 98.355469 44.355469 98.355469 41.65625 C 98.355469 37.605469 94.691406 37.605469 93.148438 41.65625 Z M 93.148438 41.65625 "/>
<path style=" stroke:none;fill-rule:nonzero;fill:rgb(0%,0%,0%);fill-opacity:1;" d="M 44.355469 47.25 C 44.355469 49.179688 45.707031 50.144531 47.828125 49.757812 C 51.878906 48.984375 51.492188 45.515625 47.441406 44.742188 C 45.515625 44.355469 44.355469 45.320312 44.355469 47.25 Z M 44.355469 47.25 "/>
<path style=" stroke:none;fill-rule:nonzero;fill:rgb(0%,0%,0%);fill-opacity:1;" d="M 27.578125 60.75 C 26.230469 64.800781 29.699219 68.269531 33.558594 66.921875 C 37.800781 65.378906 37.414062 63.0625 32.785156 60.171875 C 29.507812 58.242188 28.734375 58.242188 27.578125 60.75 Z M 27.578125 60.75 "/>
<path style=" stroke:none;fill-rule:nonzero;fill:rgb(0%,0%,0%);fill-opacity:1;" d="M 61.136719 69.234375 C 55.351562 83.507812 56.699219 88.90625 70.394531 104.335938 C 73.863281 108.191406 77.144531 112.4375 77.722656 113.980469 C 78.6875 116.292969 79.070312 116.292969 80.808594 113.785156 C 84.472656 108.769531 83.121094 104.527344 75.214844 95.269531 C 68.078125 87.363281 67.308594 85.4375 67.691406 77.335938 C 67.886719 72.320312 67.308594 66.730469 66.148438 64.800781 C 64.414062 61.714844 63.835938 62.292969 61.136719 69.234375 Z M 61.136719 69.234375 "/>
<path style=" stroke:none;fill-rule:nonzero;fill:rgb(0%,0%,0%);fill-opacity:1;" d="M 83.894531 66.921875 C 88.90625 78.6875 89.484375 85.050781 86.398438 93.535156 C 84.472656 98.355469 83.894531 102.214844 84.855469 102.214844 C 85.628906 102.214844 87.941406 98.164062 89.871094 93.34375 C 92.957031 85.050781 92.957031 84.085938 89.871094 74.058594 C 88.136719 68.269531 85.628906 63.644531 84.472656 63.644531 C 83.3125 63.644531 83.121094 64.992188 83.894531 66.921875 Z M 83.894531 66.921875 "/>
<path style=" stroke:none;fill-rule:nonzero;fill:rgb(0%,0%,0%);fill-opacity:1;" d="M 118.992188 66.730469 C 117.257812 68.65625 119.378906 71.355469 122.65625 71.355469 C 124.199219 71.355469 125.355469 70.007812 125.355469 68.464844 C 125.355469 65.570312 121.308594 64.414062 118.992188 66.730469 Z M 118.992188 66.730469 "/>
<path style=" stroke:none;fill-rule:nonzero;fill:rgb(0%,0%,0%);fill-opacity:1;" d="M 97.777344 68.851562 C 95.65625 70.777344 96.234375 75.214844 98.550781 75.214844 C 99.515625 75.214844 99.898438 74.25 99.320312 73.285156 C 98.742188 72.128906 98.9375 71.355469 100.09375 71.355469 C 102.984375 71.355469 104.527344 78.6875 102.40625 82.351562 C 101.25 84.277344 100.285156 84.664062 100.285156 83.3125 C 100.285156 79.265625 97.199219 80.808594 94.886719 85.820312 C 91.414062 93.535156 92.1875 96.042969 96.621094 90.644531 C 102.019531 84.277344 99.515625 88.519531 88.328125 105.878906 C 83.3125 113.59375 79.070312 121.886719 79.070312 124.199219 C 78.878906 128.25 78.878906 128.25 75.984375 124.394531 C 74.441406 122.269531 73.671875 118.605469 74.058594 116.484375 C 74.828125 113.785156 73.671875 110.507812 71.355469 107.808594 C 68.078125 103.757812 67.308594 103.5625 65.570312 106.070312 C 61.328125 112.4375 61.136719 121.308594 65.378906 129.601562 L 69.621094 137.894531 L 61.90625 129.214844 C 53.230469 119.570312 52.648438 116.871094 56.894531 108.769531 C 59.980469 102.792969 60.558594 98.550781 58.628906 93.730469 C 56.699219 88.90625 54.386719 90.0625 52.84375 96.8125 C 52.265625 100.285156 49.949219 106.265625 48.019531 109.929688 C 43.199219 118.800781 43.394531 122.65625 49.179688 128.441406 C 54.964844 134.035156 55.15625 136.351562 50.722656 137.507812 C 48.792969 138.085938 62.101562 138.472656 80.035156 138.664062 C 98.164062 138.664062 111.855469 138.085938 110.894531 137.3125 C 109.734375 136.542969 108.964844 131.144531 108.769531 125.355469 C 108.769531 119.570312 107.613281 112.050781 106.265625 108.964844 L 103.757812 103.179688 L 100.863281 108.578125 C 98.742188 112.820312 98.550781 115.328125 100.09375 119.765625 C 102.40625 126.320312 99.707031 135.769531 95.851562 134.613281 C 90.835938 132.878906 92.378906 123.042969 101.058594 104.335938 C 110.894531 83.699219 111.855469 77.144531 106.070312 71.355469 C 102.019531 67.308594 99.898438 66.730469 97.777344 68.851562 Z M 97.777344 68.851562 "/>
<path style=" stroke:none;fill-rule:nonzero;fill:rgb(0%,0%,0%);fill-opacity:1;" d="M 121.886719 87.171875 C 122.65625 92.378906 128.25 94.113281 129.984375 89.679688 C 131.527344 85.4375 129.792969 82.929688 125.164062 82.929688 C 122.269531 82.929688 121.308594 84.085938 121.886719 87.171875 Z M 121.886719 87.171875 "/>
<path style=" stroke:none;fill-rule:nonzero;fill:rgb(0%,0%,0%);fill-opacity:1;" d="M 39.921875 95.851562 C 37.414062 98.164062 38.570312 100.285156 42.429688 100.285156 C 44.550781 100.285156 46.285156 98.9375 46.285156 97.394531 C 46.285156 94.5 42.234375 93.34375 39.921875 95.851562 Z M 39.921875 95.851562 "/>
<path style=" stroke:none;fill-rule:nonzero;fill:rgb(0%,0%,0%);fill-opacity:1;" d="M 112.820312 104.335938 C 110.894531 107.230469 113.398438 109.15625 115.90625 106.648438 C 117.257812 105.300781 117.257812 104.144531 116.101562 103.371094 C 114.941406 102.792969 113.398438 103.179688 112.820312 104.335938 Z M 112.820312 104.335938 "/>
<path style=" stroke:none;fill-rule:nonzero;fill:rgb(0%,0%,0%);fill-opacity:1;" d="M 116.292969 138.277344 C 118.027344 138.664062 120.730469 138.664062 122.078125 138.277344 C 123.234375 137.699219 121.886719 137.3125 118.605469 137.3125 C 115.519531 137.3125 114.363281 137.699219 116.292969 138.277344 Z M 116.292969 138.277344 "/>
<path style=" stroke:none;fill-rule:nonzero;fill:rgb(0%,0%,0%);fill-opacity:1;" d="M 46.285156 144.644531 C 46.285156 145.605469 48.019531 146.570312 50.144531 146.570312 C 52.265625 146.570312 54 145.605469 54 144.644531 C 54 143.484375 52.265625 142.714844 50.144531 142.714844 C 48.019531 142.714844 46.285156 143.484375 46.285156 144.644531 Z M 46.285156 144.644531 "/>
<path style=" stroke:none;fill-rule:nonzero;fill:rgb(0%,0%,0%);fill-opacity:1;" d="M 62.679688 144.644531 C 63.257812 145.605469 65.570312 146.570312 67.5 146.570312 C 69.429688 146.570312 71.742188 145.605469 72.320312 144.644531 C 73.09375 143.484375 70.972656 142.714844 67.5 142.714844 C 64.027344 142.714844 61.90625 143.484375 62.679688 144.644531 Z M 62.679688 144.644531 "/>
<path style=" stroke:none;fill-rule:nonzero;fill:rgb(0%,0%,0%);fill-opacity:1;" d="M 91.222656 145.992188 C 95.078125 146.378906 101.636719 146.378906 105.6875 145.992188 C 109.542969 145.605469 106.265625 145.222656 98.355469 145.222656 C 90.449219 145.222656 87.171875 145.605469 91.222656 145.992188 Z M 91.222656 145.992188 "/>
<path style=" stroke:none;fill-rule:nonzero;fill:rgb(0%,0%,0%);fill-opacity:1;" d="M 89.679688 152.355469 C 90.257812 153.320312 92.570312 154.285156 94.691406 154.285156 C 96.621094 154.285156 98.355469 153.320312 98.355469 152.355469 C 98.355469 151.199219 96.042969 150.429688 93.34375 150.429688 C 90.644531 150.429688 88.90625 151.199219 89.679688 152.355469 Z M 89.679688 152.355469 "/>
</g>
</svg>
